<?xml version="1.0" encoding="iso-8859-1"?>
<!-- Generator: Adobe Illustrator 19.0.0, SVG Export Plug-In . SVG Version: 6.00 Build 0)  -->
<svg version="1.1" id="Capa_1" xmlns="http://www.w3.org/2000/svg" xmlns:xlink="http://www.w3.org/1999/xlink" x="0px" y="0px"
	 viewBox="0 0 512 512" style="enable-background:new 0 0 512 512;" xml:space="preserve">
<g>
	<g>
		<path d="M504.5,308.618c-3.03,0-5.863,0.126-8.532,0.354v-121.11c0-4.142-3.358-7.5-7.5-7.5H400.29c-4.142,0-7.5,3.358-7.5,7.5
			c0,4.142,3.358,7.5,7.5,7.5h80.678v116.326c-8.932,2.583-15.54,6.413-21.668,9.969c-10.18,5.908-18.972,11.011-37.671,11.011
			s-27.491-5.103-37.671-11.011c-10.529-6.111-22.464-13.038-45.2-13.038c-11.361,0-20.023,1.731-27.161,4.227V195.362h56.628
			c4.142,0,7.5-3.358,7.5-7.5c0-4.142-3.358-7.5-7.5-7.5h-8.532v-64.645c0-17.396-14.152-31.548-31.548-31.548
			s-31.548,14.152-31.548,31.548v64.645h-49.129v-64.645c0-17.396-14.152-31.548-31.548-31.548s-31.548,14.152-31.548,31.548v64.645
			H23.532c-4.142,0-7.5,3.358-7.5,7.5v121.113c-2.669-0.228-5.502-0.355-8.532-0.355c-4.142,0-7.5,3.358-7.5,7.5
			c0,4.142,3.358,7.5,7.5,7.5c18.677,0,27.459,5.102,37.627,11.009c10.521,6.112,22.445,13.039,45.163,13.039
			c22.723,0,34.649-6.927,45.172-13.039c10.172-5.908,18.957-11.01,37.64-11.01c18.69,0,27.479,5.102,37.654,11.01
			c10.526,6.111,22.457,13.038,45.186,13.038c22.724,0,34.651-6.927,45.174-13.039c10.172-5.908,18.957-11.01,37.641-11.01
			c18.699,0,27.491,5.103,37.671,11.011c10.529,6.111,22.464,13.038,45.201,13.038c22.736,0,34.671-6.926,45.2-13.038
			c10.18-5.908,18.972-11.011,37.671-11.011c4.142,0,7.5-3.358,7.5-7.5C512,311.976,508.642,308.618,504.5,308.618z
			 M184.371,309.251c-3.445-0.403-7.179-0.63-11.269-0.63c-22.723,0-34.65,6.927-45.173,13.039
			c-10.172,5.908-18.957,11.01-37.639,11.01c-18.677,0-27.459-5.102-37.628-11.009c-6.118-3.554-12.716-7.382-21.63-9.965V195.362
			h153.339V309.251z M199.37,115.717h0.001c0-9.125,7.423-16.548,16.548-16.548s16.548,7.423,16.548,16.548v64.645H199.37V115.717z
			 M296.596,319.921c-1.021,0.581-2.023,1.163-3.013,1.738c-10.172,5.908-18.957,11.01-37.641,11.01
			c-18.691,0-27.479-5.103-37.655-11.01c-5.481-3.182-11.347-6.584-18.917-9.115v-20.987h97.226V319.921z M296.597,276.556h-97.226
			v-33.097h97.226V276.556z M296.597,228.458h-97.226v-33.097h97.226V228.458z M311.596,115.717L311.596,115.717
			c0.001-9.125,7.424-16.548,16.549-16.548s16.548,7.423,16.548,16.548v64.645h-33.097V115.717z"/>
	</g>
</g>
<g>
	<g>
		<path d="M504.5,348.701c-6.359,0-12.077,0.518-17.48,1.583c-4.064,0.801-6.709,4.745-5.908,8.809
			c0.705,3.574,3.84,6.051,7.35,6.051c0.481,0,0.969-0.046,1.459-0.143c4.436-0.875,9.205-1.3,14.579-1.3c4.142,0,7.5-3.358,7.5-7.5
			C512,352.059,508.642,348.701,504.5,348.701z"/>
	</g>
</g>
<g>
	<g>
		<path d="M462.559,368.754c-1.923-3.669-6.456-5.085-10.124-3.163c-7.096,3.717-15.739,7.157-30.805,7.157
			c-18.699,0-27.491-5.103-37.671-11.011c-10.529-6.111-22.464-13.038-45.2-13.038c-22.724,0-34.651,6.927-45.174,13.039
			c-10.172,5.908-18.957,11.01-37.641,11.01c-18.691,0-27.479-5.103-37.655-11.01c-10.526-6.111-22.456-13.038-45.186-13.038
			c-22.723,0-34.65,6.927-45.173,13.039c-10.172,5.908-18.957,11.01-37.639,11.01c-18.677,0-27.459-5.102-37.628-11.009
			c-10.521-6.112-22.445-13.039-45.163-13.039c-4.142,0-7.5,3.358-7.5,7.5c0,4.142,3.358,7.5,7.5,7.5
			c18.677,0,27.459,5.102,37.627,11.009c10.521,6.112,22.445,13.039,45.163,13.039c22.723,0,34.65-6.927,45.173-13.039
			c10.172-5.908,18.957-11.01,37.64-11.01c18.69,0,27.479,5.102,37.654,11.01c10.526,6.111,22.457,13.038,45.186,13.038
			c22.724,0,34.651-6.927,45.174-13.039c10.172-5.908,18.957-11.01,37.641-11.01c18.699,0,27.491,5.103,37.671,11.011
			c10.529,6.111,22.464,13.038,45.201,13.038c18.358,0,29.393-4.484,37.766-8.87C463.065,376.956,464.481,372.423,462.559,368.754z"
			/>
	</g>
</g>
<g>
	<g>
		<path d="M504.5,388.781c-22.736,0-34.671,6.926-45.2,13.038c-10.18,5.908-18.972,11.011-37.671,11.011
			c-18.699,0-27.491-5.103-37.671-11.011c-10.529-6.111-22.464-13.038-45.2-13.038c-22.724,0-34.651,6.927-45.174,13.039
			c-10.172,5.908-18.957,11.01-37.641,11.01c-18.691,0-27.479-5.103-37.655-11.01c-10.526-6.111-22.456-13.038-45.186-13.038
			c-22.723,0-34.65,6.927-45.173,13.039c-10.172,5.908-18.957,11.01-37.639,11.01c-15.196,0-23.971-3.546-31.189-7.377
			c-3.658-1.941-8.199-0.551-10.141,3.108c-1.942,3.659-0.551,8.199,3.108,10.141c8.503,4.514,19.694,9.128,38.222,9.128
			c22.723,0,34.649-6.927,45.172-13.039c10.172-5.908,18.957-11.01,37.64-11.01c18.69,0,27.479,5.102,37.654,11.01
			c10.526,6.111,22.457,13.038,45.186,13.038c22.724,0,34.651-6.927,45.174-13.039c10.172-5.908,18.957-11.01,37.641-11.01
			c18.699,0,27.491,5.103,37.671,11.011c10.529,6.111,22.464,13.038,45.201,13.038c22.736,0,34.671-6.926,45.2-13.038
			c10.18-5.908,18.972-11.011,37.671-11.011c4.142,0,7.5-3.358,7.5-7.5C512,392.139,508.642,388.781,504.5,388.781z"/>
	</g>
</g>
<g>
	<g>
		<path d="M24.987,390.369c-5.406-1.068-11.126-1.587-17.487-1.587c-4.142,0-7.5,3.358-7.5,7.5c0,4.142,3.358,7.5,7.5,7.5
			c5.373,0,10.142,0.426,14.58,1.303c0.491,0.097,0.979,0.144,1.462,0.144c3.509,0,6.644-2.475,7.35-6.048
			C31.694,395.117,29.051,391.172,24.987,390.369z"/>
	</g>
</g>
<g>
</g>
<g>
</g>
<g>
</g>
<g>
</g>
<g>
</g>
<g>
</g>
<g>
</g>
<g>
</g>
<g>
</g>
<g>
</g>
<g>
</g>
<g>
</g>
<g>
</g>
<g>
</g>
<g>
</g>
</svg>
