<?xml version="1.0" encoding="iso-8859-1"?>
<!-- Generator: Adobe Illustrator 19.0.0, SVG Export Plug-In . SVG Version: 6.00 Build 0)  -->
<svg version="1.1" id="Capa_1" xmlns="http://www.w3.org/2000/svg" xmlns:xlink="http://www.w3.org/1999/xlink" x="0px" y="0px"
	 viewBox="0 0 511.999 511.999" style="enable-background:new 0 0 511.999 511.999;" xml:space="preserve">
<g>
	<g>
		<path d="M435.952,258.595c-23.789-83.008-84.244-171.729-174.83-256.569c-2.885-2.701-7.369-2.701-10.254,0
			c-17.757,16.631-34.608,33.66-50.086,50.615c-2.792,3.059-2.577,7.803,0.482,10.596c3.06,2.792,7.803,2.577,10.596-0.482
			c13.719-15.028,28.544-30.123,44.135-44.943c85.759,81.502,142.942,166.075,165.537,244.916
			c20.129,70.239,11.592,132.737-24.04,175.981c-2.634,3.195-2.177,7.922,1.019,10.556c3.066,2.527,7.907,2.198,10.558-1.019
			C447.936,401.076,457.483,333.723,435.952,258.595z"/>
	</g>
</g>
<g>
	<g>
		<path d="M387.801,459.874c-2.611-3.215-7.334-3.705-10.55-1.094c-30.788,25.003-72.718,38.219-121.256,38.219
			c-75.954,0-134.618-32.53-160.951-89.25c-18.072-38.928-20.136-87.356-5.969-140.049c15.84-58.912,50.53-120.336,103.106-182.566
			c2.675-3.164,2.277-7.896-0.887-10.57c-3.164-2.673-7.896-2.275-10.569,0.889c-54.009,63.926-89.718,127.296-106.134,188.352
			c-15.094,56.138-12.726,108.097,6.849,150.26c28.894,62.238,92.517,97.934,174.555,97.934c52.02,0,97.22-14.376,130.712-41.575
			C389.922,467.813,390.412,463.09,387.801,459.874z"/>
	</g>
</g>
<g>
	<g>
		<path d="M157.995,274.897c-4.142,0-7.5,3.358-7.5,7.5v17.736c0,4.143,3.358,7.5,7.5,7.5c4.142,0,7.5-3.357,7.5-7.5v-17.736
			C165.495,278.255,162.137,274.897,157.995,274.897z"/>
	</g>
</g>
<g>
	<g>
		<path d="M353.995,274.897c-4.142,0-7.5,3.358-7.5,7.5v17.736c0,4.143,3.358,7.5,7.5,7.5c4.142,0,7.5-3.357,7.5-7.5v-17.736
			C361.495,278.255,358.137,274.897,353.995,274.897z"/>
	</g>
</g>
<g>
	<g>
		<path d="M285.119,293.252c-3.118-2.727-7.857-2.407-10.582,0.711c-4.521,5.171-11.279,8.138-18.541,8.138
			c-7.263,0-14.021-2.966-18.541-8.138c-2.726-3.119-7.465-3.437-10.583-0.711c-3.119,2.726-3.438,7.464-0.711,10.583
			c7.369,8.431,18.243,13.266,29.834,13.266c11.591,0,22.465-4.835,29.834-13.266C288.556,300.717,288.237,295.979,285.119,293.252z
			"/>
	</g>
</g>
<g>
</g>
<g>
</g>
<g>
</g>
<g>
</g>
<g>
</g>
<g>
</g>
<g>
</g>
<g>
</g>
<g>
</g>
<g>
</g>
<g>
</g>
<g>
</g>
<g>
</g>
<g>
</g>
<g>
</g>
</svg>
